HIERARCHY
ROOT Hips
{
 OFFSET 0.000000 0.000000 0.000000
 CHANNELS 6 Xposition Yposition Zposition Yrotation Xrotation Zrotation
 JOINT Chest
 {
  OFFSET 0.000000 13.173100 -0.061900
  CHANNELS 3 Yrotation Xrotation Zrotation
  JOINT Chest2
  {
   OFFSET 0.000000 8.040800 0.126200
   CHANNELS 3 Yrotation Xrotation Zrotation
   JOINT Chest3
   {
    OFFSET 0.000000 7.994400 0.000000
    CHANNELS 3 Yrotation Xrotation Zrotation
    JOINT Chest4
    {
     OFFSET 0.000000 7.986200 0.000000
     CHANNELS 3 Yrotation Xrotation Zrotation
     JOINT Neck
     {
      OFFSET 0.000000 12.259400 0.000000
      CHANNELS 3 Yrotation Xrotation Zrotation
      JOINT Head
      {
       OFFSET 0.000000 7.518700 0.267100
       CHANNELS 3 Yrotation Xrotation Zrotation
       End Site
       {
        OFFSET 0.000000 13.617700 0.141000
       }
      }
     }
     JOINT RightCollar
     {
      OFFSET -2.983800 8.314300 0.000000
      CHANNELS 3 Yrotation Xrotation Zrotation
      JOINT RightShoulder
      {
       OFFSET -16.133400 0.000000 0.000000
       CHANNELS 3 Yrotation Xrotation Zrotation
       JOINT RightElbow
       {
        OFFSET 0.000000 -29.822100 0.000000
        CHANNELS 3 Yrotation Xrotation Zrotation
        JOINT RightWrist
        {
         OFFSET 0.000000 -24.437700 0.010900
         CHANNELS 3 Yrotation Xrotation Zrotation
         End Site
         {
          OFFSET 0.000000 -18.312300 0.000000
         }
        }
       }
      }
     }
     JOINT LeftCollar
     {
      OFFSET 2.983800 8.314300 0.000000
      CHANNELS 3 Yrotation Xrotation Zrotation
      JOINT LeftShoulder
      {
       OFFSET 16.133400 0.000000 0.000000
       CHANNELS 3 Yrotation Xrotation Zrotation
       JOINT LeftElbow
       {
        OFFSET 0.000000 -29.822100 0.000000
        CHANNELS 3 Yrotation Xrotation Zrotation
        JOINT LeftWrist
        {
         OFFSET 0.000000 -24.437700 0.010900
         CHANNELS 3 Yrotation Xrotation Zrotation
         End Site
         {
          OFFSET 0.000000 -18.312300 0.000000
         }
        }
       }
      }
     }
    }
   }
  }
 }
 JOINT RightHip
 {
  OFFSET -11.206700 0.306200 0.030900
  CHANNELS 3 Yrotation Xrotation Zrotation
  JOINT RightKnee
  {
   OFFSET 0.000000 -57.334900 0.009400
   CHANNELS 3 Yrotation Xrotation Zrotation
   JOINT RightAnkle
   {
    OFFSET 0.000000 -43.376200 0.036600
    CHANNELS 3 Yrotation Xrotation Zrotation
    JOINT RightToe
    {
     OFFSET 0.000000 -10.035500 18.363100
     CHANNELS 3 Yrotation Xrotation Zrotation
     End Site
     {
      OFFSET 0.000000 -1.618500 7.239000
     }
    }
   }
  }
 }
 JOINT LeftHip
 {
  OFFSET 11.206700 0.306200 0.030900
  CHANNELS 3 Yrotation Xrotation Zrotation
  JOINT LeftKnee
  {
   OFFSET 0.000000 -57.334900 0.009400
   CHANNELS 3 Yrotation Xrotation Zrotation
   JOINT LeftAnkle
   {
    OFFSET 0.000000 -43.376200 0.036600
    CHANNELS 3 Yrotation Xrotation Zrotation
    JOINT LeftToe
    {
     OFFSET 0.000000 -10.035500 18.363100
     CHANNELS 3 Yrotation Xrotation Zrotation
     End Site
     {
      OFFSET 0.000000 -1.618500 7.239000
     }
    }
   }
  }
 }
}
MOTION
Frames: 8
Frame Time: 0.008333
0.000000 110.232800 0.000000 0.000000 -5.767877 0.000000 0.000000 11.653817 0.000000 0.000000 -5.885947 0.000000 0.000000 -0.000000 0.000000 0.000000 -0.000000 0.000000 0.000000 12.528835 0.000000 0.000000 0.711642 0.000000 0.000000 -0.000000 0.000000 0.000000 0.000000 -90.000000 0.000000 -2.309062 0.000000 0.000000 2.309062 0.000000 0.000000 -0.000000 0.000000 0.000000 -0.000000 90.000000 0.000000 -2.309062 0.000000 0.000000 2.309062 0.000000 0.000000 8.520406 0.000000 0.000000 1.905762 0.000000 -0.000000 -4.658285 0.000000 0.000000 -0.000000 0.000000 0.000000 8.520406 0.000000 0.000000 1.905762 0.000000 -0.000000 -4.658285 0.000000 0.000000 -0.000000 0.000000
-94.570855 64.229318 92.644337 173.673363 -36.448095 -2.750488 3.840638 23.703360 2.386677 0.492880 3.617561 0.428406 0.785923 5.796526 0.689654 3.169097 19.815733 2.846942 -0.265707 14.172718 0.104813 -0.558155 -9.485696 0.295426 -3.680424 2.261964 -1.169695 -7.813713 -5.400018 2.016107 -97.355217 -41.500758 115.293104 -11.018827 1.980082 20.117449 -6.211060 3.683469 -0.372712 10.883731 -8.687463 1.183997 83.175180 -28.670655 -114.399311 17.822885 8.683494 -22.388178 -5.326822 -44.702788 4.834197 -131.985061 85.744719 -127.561068 0.303618 -10.214061 -3.099267 0.433289 -0.713176 0.243551 -1.745554 -41.298306 4.114470 74.274823 83.596941 64.059682 -5.511621 -12.793116 9.423441 0.228217 1.179216 0.089289
-94.567913 64.229567 92.643942 173.671770 -36.457635 -2.751349 3.850527 23.716473 2.396714 0.494405 3.619669 0.430040 0.820869 5.826396 0.719809 3.170710 19.810874 2.859998 -0.257527 14.215752 0.052112 -0.504229 -9.395321 0.197164 -3.685882 2.258526 -1.157722 -7.787864 -5.468833 2.088856 -97.110572 -41.373537 114.777115 -11.351415 1.734659 19.372438 -6.238407 3.676972 -0.375360 10.739016 -8.786883 1.167039 83.397390 -28.984971 -114.210504 18.404273 7.691016 -19.956507 -5.342485 -44.693387 4.868340 -131.759858 85.727282 -127.361235 0.294772 -10.211130 -3.092228 0.439875 -0.716392 0.249964 -1.781339 -41.289557 4.126127 74.346442 83.591573 64.118792 -5.497611 -12.794327 9.416060 0.217953 1.176948 0.096584
-94.565913 64.229532 92.644388 173.672899 -36.465297 -2.753218 3.859066 23.728832 2.407987 0.495917 3.621950 0.431730 0.832620 5.837375 0.739846 3.185205 19.818240 2.883072 -0.244997 14.255431 -0.003830 -0.459036 -9.321951 0.086889 -3.677084 2.258216 -1.148567 -7.769079 -5.526520 2.155546 -96.908575 -41.279805 114.297947 -11.639013 1.502277 18.720519 -6.272255 3.651544 -0.401207 10.604838 -8.877821 1.165494 83.524866 -29.152431 -113.979506 18.928892 6.657652 -17.587601 -5.349590 -44.685889 4.884269 -131.649098 85.720103 -127.258962 0.292203 -10.207255 -3.094317 0.441913 -0.719093 0.254488 -1.801425 -41.282548 4.130150 74.379495 83.590678 64.148541 -5.494746 -12.796064 9.412687 0.219615 1.176965 0.098851
-94.563682 64.229972 92.645167 173.674693 -36.475579 -2.762207 3.874605 23.743562 2.440624 0.512242 3.637099 0.462225 0.809289 5.826116 0.707610 3.210754 19.835110 2.925212 -0.237952 14.281054 -0.068161 -0.421074 -9.274529 -0.036805 -3.660924 2.253538 -1.148616 -7.759781 -5.572617 2.218749 -96.767199 -41.231464 113.866063 -11.868530 1.286008 18.156962 -6.302360 3.623624 -0.434562 10.470549 -8.972955 1.158226 83.546359 -29.169274 -113.703209 19.406931 5.583046 -15.292422 -5.361506 -44.675045 4.913365 -131.491070 85.714221 -127.121106 0.295967 -10.199586 -3.077127 0.431651 -0.722397 0.252524 -1.828942 -41.274883 4.135533 74.327342 83.608676 64.123790 -5.498671 -12.798733 9.382588 0.256683 1.182532 0.106455
-94.568078 64.231330 92.644601 173.673465 -36.492958 -2.747668 3.883459 23.766738 2.452227 0.510933 3.641922 0.470429 0.804992 5.825450 0.695468 3.231536 19.852078 2.969096 -0.234292 14.290236 -0.139808 -0.386726 -9.257662 -0.172865 -3.667042 2.234937 -1.174837 -7.738079 -5.597958 2.295844 -96.681792 -41.227039 113.482663 -12.033175 1.094949 17.667787 -6.288185 3.593848 -0.430452 10.305534 -9.060088 1.105939 83.468670 -29.042044 -113.392630 19.851311 4.477781 -13.066634 -5.331564 -44.663852 4.905452 -131.288073 85.692812 -126.929935 0.281774 -10.191684 -3.062321 0.443627 -0.728803 0.258680 -1.882494 -41.254064 4.125159 74.426909 83.576756 64.187926 -5.462664 -12.800767 9.391712 0.217405 1.179925 0.083633
-94.571718 64.231091 92.647613 173.668854 -36.496581 -2.744941 3.898258 23.774941 2.482305 0.506539 3.646038 0.474517 0.822039 5.850851 0.738736 3.209295 19.844631 2.953409 -0.231902 14.285142 -0.217066 -0.352661 -9.267290 -0.319029 -3.628297 2.233124 -1.175614 -7.771656 -5.636280 2.346920 -96.631112 -41.256104 113.141974 -12.141086 0.937887 17.241290 -6.299387 3.563495 -0.458843 10.175157 -9.149040 1.075809 83.322553 -28.789009 -113.067309 20.278314 3.371935 -10.907494 -5.312120 -44.663584 4.909003 -131.093702 85.684860 -126.746345 0.287918 -10.180885 -3.037445 0.435948 -0.730080 0.251091 -1.904119 -41.250538 4.119588 74.421055 83.568334 64.185826 -5.457009 -12.801860 9.377108 0.226288 1.183482 0.087246
-94.577734 64.231079 92.651114 173.677952 -36.499740 -2.749539 3.896497 23.785808 2.533652 0.500825 3.643172 0.439448 0.822666 5.854381 0.742096 3.223268 19.857176 2.992429 -0.230849 14.268571 -0.297909 -0.319591 -9.298043 -0.471344 -3.589345 2.234618 -1.176622 -7.814781 -5.669251 2.399713 -96.597173 -41.310986 112.835509 -12.217924 0.813739 16.877265 -6.318576 3.537499 -0.499593 10.072405 -9.238227 1.051288 83.124551 -28.428677 -112.731181 20.671818 2.290558 -8.825627 -5.309142 -44.660377 4.904778 -131.001521 85.685029 -126.650876 0.287040 -10.175827 -3.039948 0.438665 -0.729658 0.253387 -1.919124 -41.248553 4.110373 74.364144 83.566849 64.141263 -5.466339 -12.797127 9.354772 0.249596 1.186224 0.106099
